<?xml version="1.0" encoding="UTF-8" standalone="no"?>
<!DOCTYPE svg PUBLIC "-//W3C//DTD SVG 1.1//EN"
 "http://www.w3.org/Graphics/SVG/1.1/DTD/svg11.dtd">
<!-- Generated by graphviz version 2.28.0 (20111028.1807)
 -->
<!-- Title: controllers_diagram Pages: 1 -->
<svg width="455pt" height="234pt"
 viewBox="0.00 0.00 455.22 234.00" xmlns="http://www.w3.org/2000/svg" xmlns:xlink="http://www.w3.org/1999/xlink">
<g id="graph1" class="graph" transform="scale(1 1) rotate(0) translate(4 230)">
<title>controllers_diagram</title>
<polygon fill="white" stroke="white" points="-4,5 -4,-230 452.217,-230 452.217,5 -4,5"/>
<!-- _diagram_info -->
<g id="node1" class="node"><title>_diagram_info</title>
<text text-anchor="start" x="247.841" y="-209" font-family="Times,serif" font-size="13.00">Controllers diagram</text>
<text text-anchor="start" x="247.841" y="-193.4" font-family="Times,serif" font-size="13.00">Date: Feb 01 2013 &#45; 23:47</text>
<text text-anchor="start" x="247.841" y="-177.8" font-family="Times,serif" font-size="13.00">Migration version: 20130202033722</text>
<text text-anchor="start" x="247.841" y="-162.2" font-family="Times,serif" font-size="13.00">Generated by RailRoady 1.1.0</text>
<text text-anchor="start" x="247.841" y="-146.6" font-family="Times,serif" font-size="13.00">http://railroady.prestonlee.com</text>
</g>
<!-- ApplicationController -->
<g id="node2" class="node"><title>ApplicationController</title>
<polyline fill="none" stroke="black" points="11.8413,-24.8825 190.476,-24.8825 "/>
<path fill="none" stroke="black" d="M190.476,-24.8825C196.476,-24.8825 202.476,-30.8825 202.476,-36.8825"/>
<polyline fill="none" stroke="black" points="202.476,-36.8825 202.476,-111.282 "/>
<path fill="none" stroke="black" d="M202.476,-111.282C202.476,-117.282 196.476,-123.282 190.476,-123.282"/>
<polyline fill="none" stroke="black" points="190.476,-123.282 11.8413,-123.282 "/>
<path fill="none" stroke="black" d="M11.8413,-123.282C5.84131,-123.282 -0.158691,-117.282 -0.158691,-111.282"/>
<polyline fill="none" stroke="black" points="-0.158691,-111.282 -0.158691,-36.8825 "/>
<path fill="none" stroke="black" d="M-0.158691,-36.8825C-0.158691,-30.8825 5.84131,-24.8825 11.8413,-24.8825"/>
<text text-anchor="middle" x="101.159" y="-105.282" font-family="Times,serif" font-size="14.00">ApplicationController</text>
<polyline fill="none" stroke="black" points="-0.158691,-98.4825 202.476,-98.4825 "/>
<text text-anchor="start" x="7.84131" y="-80.4825" font-family="Times,serif" font-size="14.00">_one_time_conditions_valid_14?</text>
<polyline fill="none" stroke="black" points="-0.158691,-73.6825 202.476,-73.6825 "/>
<polyline fill="none" stroke="black" points="-0.158691,-49.6825 202.476,-49.6825 "/>
<text text-anchor="start" x="7.84131" y="-31.6825" font-family="Times,serif" font-size="14.00">_layout</text>
</g>
<!-- HomeController -->
<g id="node3" class="node"><title>HomeController</title>
<polyline fill="none" stroke="black" points="222.476,-0.5 306.235,-0.5 "/>
<path fill="none" stroke="black" d="M306.235,-0.5C312.235,-0.5 318.235,-6.5 318.235,-12.5"/>
<polyline fill="none" stroke="black" points="318.235,-12.5 318.235,-86.9 "/>
<path fill="none" stroke="black" d="M318.235,-86.9C318.235,-92.9 312.235,-98.9 306.235,-98.9"/>
<polyline fill="none" stroke="black" points="306.235,-98.9 222.476,-98.9 "/>
<path fill="none" stroke="black" d="M222.476,-98.9C216.476,-98.9 210.476,-92.9 210.476,-86.9"/>
<polyline fill="none" stroke="black" points="210.476,-86.9 210.476,-12.5 "/>
<path fill="none" stroke="black" d="M210.476,-12.5C210.476,-6.5 216.476,-0.5 222.476,-0.5"/>
<text text-anchor="middle" x="264.355" y="-80.9" font-family="Times,serif" font-size="14.00">HomeController</text>
<polyline fill="none" stroke="black" points="210.476,-74.1 318.235,-74.1 "/>
<text text-anchor="start" x="218.476" y="-56.1" font-family="Times,serif" font-size="14.00">index</text>
<polyline fill="none" stroke="black" points="210.476,-49.3 318.235,-49.3 "/>
<polyline fill="none" stroke="black" points="210.476,-25.3 318.235,-25.3 "/>
<text text-anchor="start" x="218.476" y="-7.3" font-family="Times,serif" font-size="14.00">_layout</text>
</g>
<!-- ApplicationController&#45;&gt;HomeController -->
<g id="edge2" class="edge"><title>ApplicationController&#45;&gt;HomeController</title>
<path fill="none" stroke="black" d="M202.658,-58.918C205.251,-58.5306 207.815,-58.1475 210.339,-57.7703"/>
</g>
</g>
</svg>
