<?xml version="1.0" encoding="UTF-8" standalone="no"?>
<!DOCTYPE svg PUBLIC "-//W3C//DTD SVG 1.1//EN"
 "http://www.w3.org/Graphics/SVG/1.1/DTD/svg11.dtd">
<!-- Generated by graphviz version 2.28.0 (20111028.1807)
 -->
<!-- Title: models_diagram Pages: 1 -->
<svg width="391pt" height="482pt"
 viewBox="0.00 0.00 391.00 482.00" xmlns="http://www.w3.org/2000/svg" xmlns:xlink="http://www.w3.org/1999/xlink">
<g id="graph1" class="graph" transform="scale(1 1) rotate(0) translate(4 478)">
<title>models_diagram</title>
<polygon fill="white" stroke="white" points="-4,5 -4,-478 388,-478 388,5 -4,5"/>
<!-- _diagram_info -->
<g id="node1" class="node"><title>_diagram_info</title>
<text text-anchor="start" x="7.31226" y="-399" font-family="Times,serif" font-size="13.00">Models diagram</text>
<text text-anchor="start" x="7.31226" y="-383.4" font-family="Times,serif" font-size="13.00">Date: Feb 01 2013 &#45; 23:47</text>
<text text-anchor="start" x="7.31226" y="-367.8" font-family="Times,serif" font-size="13.00">Migration version: 20130202033722</text>
<text text-anchor="start" x="7.31226" y="-352.2" font-family="Times,serif" font-size="13.00">Generated by RailRoady 1.1.0</text>
<text text-anchor="start" x="7.31226" y="-336.6" font-family="Times,serif" font-size="13.00">http://railroady.prestonlee.com</text>
</g>
<!-- Station -->
<g id="node2" class="node"><title>Station</title>
<polyline fill="none" stroke="black" points="236.322,-272.6 347.678,-272.6 "/>
<path fill="none" stroke="black" d="M347.678,-272.6C353.678,-272.6 359.678,-278.6 359.678,-284.6"/>
<polyline fill="none" stroke="black" points="359.678,-284.6 359.678,-461.4 "/>
<path fill="none" stroke="black" d="M359.678,-461.4C359.678,-467.4 353.678,-473.4 347.678,-473.4"/>
<polyline fill="none" stroke="black" points="347.678,-473.4 236.322,-473.4 "/>
<path fill="none" stroke="black" d="M236.322,-473.4C230.322,-473.4 224.322,-467.4 224.322,-461.4"/>
<polyline fill="none" stroke="black" points="224.322,-461.4 224.322,-284.6 "/>
<path fill="none" stroke="black" d="M224.322,-284.6C224.322,-278.6 230.322,-272.6 236.322,-272.6"/>
<text text-anchor="middle" x="292" y="-455.4" font-family="Times,serif" font-size="14.00">Station</text>
<polyline fill="none" stroke="black" points="224.322,-448.6 359.678,-448.6 "/>
<text text-anchor="start" x="232.322" y="-430.6" font-family="Times,serif" font-size="14.00">id :integer</text>
<text text-anchor="start" x="232.322" y="-413.8" font-family="Times,serif" font-size="14.00">bixi_id :integer</text>
<text text-anchor="start" x="232.322" y="-397" font-family="Times,serif" font-size="14.00">name :string</text>
<text text-anchor="start" x="232.322" y="-380.2" font-family="Times,serif" font-size="14.00">terminalName :string</text>
<text text-anchor="start" x="232.322" y="-363.4" font-family="Times,serif" font-size="14.00">latitude :float</text>
<text text-anchor="start" x="232.322" y="-346.6" font-family="Times,serif" font-size="14.00">longitude :float</text>
<text text-anchor="start" x="232.322" y="-329.8" font-family="Times,serif" font-size="14.00">installDate :integer</text>
<text text-anchor="start" x="232.322" y="-313" font-family="Times,serif" font-size="14.00">removalDate :integer</text>
<text text-anchor="start" x="232.322" y="-296.2" font-family="Times,serif" font-size="14.00">created_at :datetime</text>
<text text-anchor="start" x="232.322" y="-279.4" font-family="Times,serif" font-size="14.00">updated_at :datetime</text>
</g>
<!-- StationHistory -->
<g id="node3" class="node"><title>StationHistory</title>
<polyline fill="none" stroke="black" points="212.103,-0.8 371.897,-0.8 "/>
<path fill="none" stroke="black" d="M371.897,-0.8C377.897,-0.8 383.897,-6.8 383.897,-12.8"/>
<polyline fill="none" stroke="black" points="383.897,-12.8 383.897,-223.2 "/>
<path fill="none" stroke="black" d="M383.897,-223.2C383.897,-229.2 377.897,-235.2 371.897,-235.2"/>
<polyline fill="none" stroke="black" points="371.897,-235.2 212.103,-235.2 "/>
<path fill="none" stroke="black" d="M212.103,-235.2C206.103,-235.2 200.103,-229.2 200.103,-223.2"/>
<polyline fill="none" stroke="black" points="200.103,-223.2 200.103,-12.8 "/>
<path fill="none" stroke="black" d="M200.103,-12.8C200.103,-6.8 206.103,-0.8 212.103,-0.8"/>
<text text-anchor="middle" x="292" y="-217.2" font-family="Times,serif" font-size="14.00">StationHistory</text>
<polyline fill="none" stroke="black" points="200.103,-210.4 383.897,-210.4 "/>
<text text-anchor="start" x="208.103" y="-192.4" font-family="Times,serif" font-size="14.00">id :integer</text>
<text text-anchor="start" x="208.103" y="-175.6" font-family="Times,serif" font-size="14.00">lastCommWithServer :integer</text>
<text text-anchor="start" x="208.103" y="-158.8" font-family="Times,serif" font-size="14.00">installed :boolean</text>
<text text-anchor="start" x="208.103" y="-142" font-family="Times,serif" font-size="14.00">locked :boolean</text>
<text text-anchor="start" x="208.103" y="-125.2" font-family="Times,serif" font-size="14.00">temporary :boolean</text>
<text text-anchor="start" x="208.103" y="-108.4" font-family="Times,serif" font-size="14.00">public :boolean</text>
<text text-anchor="start" x="208.103" y="-91.6" font-family="Times,serif" font-size="14.00">nbBikes :integer</text>
<text text-anchor="start" x="208.103" y="-74.8" font-family="Times,serif" font-size="14.00">nbEmptyDocks :integer</text>
<text text-anchor="start" x="208.103" y="-58" font-family="Times,serif" font-size="14.00">latestUpdateTime :integer</text>
<text text-anchor="start" x="208.103" y="-41.2" font-family="Times,serif" font-size="14.00">station_id :integer</text>
<text text-anchor="start" x="208.103" y="-24.4" font-family="Times,serif" font-size="14.00">created_at :datetime</text>
<text text-anchor="start" x="208.103" y="-7.6" font-family="Times,serif" font-size="14.00">updated_at :datetime</text>
</g>
<!-- Station&#45;&gt;StationHistory -->
<g id="edge2" class="edge"><title>Station&#45;&gt;StationHistory</title>
<path fill="none" stroke="#6fe2dc" d="M292,-264.34C292,-258.185 292,-251.97 292,-245.753"/>
<ellipse fill="none" stroke="#6fe2dc" cx="292" cy="-268.371" rx="4" ry="4"/>
<polygon fill="#6fe2dc" stroke="#6fe2dc" points="292,-245.301 296.5,-235.301 292,-240.301 292,-235.301 292,-235.301 292,-235.301 292,-240.301 287.5,-235.301 292,-245.301 292,-245.301"/>
</g>
</g>
</svg>
