<?xml version="1.0" encoding="UTF-8" standalone="no"?>
<!DOCTYPE svg PUBLIC "-//W3C//DTD SVG 1.1//EN"
 "http://www.w3.org/Graphics/SVG/1.1/DTD/svg11.dtd">
<!-- Generated by graphviz version 2.28.0 (20111028.1807)
 -->
<!-- Title: models_diagram Pages: 1 -->
<svg width="338pt" height="166pt"
 viewBox="0.00 0.00 338.00 166.00" xmlns="http://www.w3.org/2000/svg" xmlns:xlink="http://www.w3.org/1999/xlink">
<g id="graph1" class="graph" transform="scale(1 1) rotate(0) translate(4 162)">
<title>models_diagram</title>
<polygon fill="white" stroke="white" points="-4,5 -4,-162 335,-162 335,5 -4,5"/>
<!-- _diagram_info -->
<g id="node1" class="node"><title>_diagram_info</title>
<text text-anchor="start" x="7.31226" y="-141" font-family="Times,serif" font-size="13.00">Models diagram</text>
<text text-anchor="start" x="7.31226" y="-125.4" font-family="Times,serif" font-size="13.00">Date: Feb 01 2013 &#45; 23:47</text>
<text text-anchor="start" x="7.31226" y="-109.8" font-family="Times,serif" font-size="13.00">Migration version: 20130202033722</text>
<text text-anchor="start" x="7.31226" y="-94.2" font-family="Times,serif" font-size="13.00">Generated by RailRoady 1.1.0</text>
<text text-anchor="start" x="7.31226" y="-78.6" font-family="Times,serif" font-size="13.00">http://railroady.prestonlee.com</text>
</g>
<!-- Station -->
<g id="node2" class="node"><title>Station</title>
<ellipse fill="none" stroke="black" cx="263" cy="-115" rx="38.0999" ry="18"/>
<text text-anchor="middle" x="263" y="-109.4" font-family="Times,serif" font-size="14.00">Station</text>
</g>
<!-- StationHistory -->
<g id="node3" class="node"><title>StationHistory</title>
<ellipse fill="none" stroke="black" cx="263" cy="-18" rx="67.056" ry="18"/>
<text text-anchor="middle" x="263" y="-12.4" font-family="Times,serif" font-size="14.00">StationHistory</text>
</g>
<!-- Station&#45;&gt;StationHistory -->
<g id="edge2" class="edge"><title>Station&#45;&gt;StationHistory</title>
<path fill="none" stroke="#bfc3c7" d="M263,-88.4138C263,-75.5178 263,-59.8618 263,-46.6847"/>
<ellipse fill="none" stroke="#bfc3c7" cx="263" cy="-92.5755" rx="4" ry="4"/>
<polygon fill="#bfc3c7" stroke="#bfc3c7" points="263,-46.314 267.5,-36.314 263,-41.314 263,-36.314 263,-36.314 263,-36.314 263,-41.314 258.5,-36.314 263,-46.314 263,-46.314"/>
</g>
</g>
</svg>
